<svg xmlns="http://www.w3.org/2000/svg" viewBox="0 0 104 119" id="datalore">
    <path d="m81.85256 59.49646-.03064.04433s-12.64585 14.65521-29.82192 14.65521-29.82192-14.6552-29.82192-14.6552a163.00352 163.00352 0 0 1 -22.17808-29.2563v58.96738l.516.29519a58.48242 58.48242 0 0 0 26.41919 6.01962c13.33747 0 26.33563-2.17387 36.18571-8.70659 10.00845-6.63774 16.9161-17.43845 18.73166-27.36364z"
          fill="#29b2e7"></path>
    <path d="m81.85312 59.49566-.00056.00081c-1.8156 9.92514-8.72321 20.72589-18.73165 27.36364-9.85008 6.53272-22.84824 8.70658-36.18571 8.70658a58.48242 58.48242 0 0 1 -26.4192-6.01961l51.484 29.45292 52-29.74811v-.52817a163.47741 163.47741 0 0 0 -22.14688-29.22806z"
          fill="#6284c3"></path>
    <path d="m81.85312 59.49566-.00642.00914a65.22553 65.22553 0 0 1 -2.24386 28.41064c-4.04885 13.34195-11.9924 20.92685-24.0129 29.03084l48.41006-27.6944v-.52817a163.477 163.477 0 0 0 -22.14688-29.22805z"
          fill="#6f57a5"></path>
    <path d="m22.14746 59.50353.03064-.04432s12.6459-14.65521 29.8219-14.65521 29.82192 14.65526 29.82192 14.65526a163.00406 163.00406 0 0 1 22.17808 29.25631v-58.96746l-.516-.29519a58.48223 58.48223 0 0 0 -26.41919-6.01962c-13.33747 0-26.33562 2.17387-36.18571 8.70659-10.00844 6.63775-16.91605 17.4385-18.73164 27.36364z"
          fill="#00a775"></path>
    <path d="m22.14689 59.50435.00057-.00081c1.81559-9.92515 8.7232-20.7259 18.73164-27.36364 9.85009-6.53272 22.84823-8.7066 36.18571-8.70659a58.48236 58.48236 0 0 1 26.41919 6.01962l-51.484-29.45293-52 29.74812v.52816a163.478 163.478 0 0 0 22.14689 29.22807z"
          fill="#6ebe48"></path>
    <path d="m22.14689 59.50435.00642-.00914a65.22559 65.22559 0 0 1 2.24386-28.41066c4.04883-13.34198 11.99242-20.92686 24.01292-29.03083l-48.41009 27.69439v.52816a163.47772 163.47772 0 0 0 22.14689 29.22808z"
          fill="#add361"></path>
</svg>
