<svg xmlns="http://www.w3.org/2000/svg" viewBox="0 0 68.67 68.67" id="header-gamedev">
    <linearGradient id="header-gamedev_a" gradientUnits="userSpaceOnUse" x1="58.151" y1="10.516" x2="12.384"
                    y2="56.283">
        <stop offset="0" stop-color="#c8ff00"></stop>
        <stop offset=".035" stop-color="#c1ee0d"></stop>
        <stop offset=".202" stop-color="#a0a248"></stop>
        <stop offset=".35" stop-color="#876677"></stop>
        <stop offset=".475" stop-color="#753b99"></stop>
        <stop offset=".572" stop-color="#6920ad"></stop>
        <stop offset=".629" stop-color="#6516b5"></stop>
    </linearGradient>
    <circle fill="url(#header-gamedev_a)" cx="34.33" cy="34.33" r="34.33"></circle>
    <path fill="#FFF"
          d="M55.85 41.26l-2.91-12.91a8.112 8.112 0 0 0-7.92-6.33h-9.37V19.1c0-4.17-1.17-6.65-2.4-9.27-1.2-2.56-2.44-5.19-2.71-9.82h-2c.28 5.09 1.66 8.04 2.9 10.67 1.19 2.52 2.21 4.7 2.21 8.42v2.92h-9.84c-3.79 0-7.08 2.63-7.92 6.33l-2.91 12.91c-.46 2.05.57 4.15 2.48 5.03 1.68.78 3.67.43 4.99-.87l8.54-5.5c3.3-2.12 7.53-2.13 10.84-.02l8.41 5.38c1.18 1.16 2.9 1.7 4.49 1.24a4.449 4.449 0 0 0 3.12-5.26zm-31.42-5.78a4.11 4.11 0 1 1 4.11-4.11c.01 2.26-1.83 4.11-4.11 4.11zm20.38-9.05c.87 0 1.58.71 1.58 1.58 0 .88-.71 1.58-1.58 1.58-.88 0-1.58-.71-1.58-1.58 0-.87.7-1.58 1.58-1.58zm-3.11 6.29c-.87 0-1.58-.71-1.58-1.58s.71-1.58 1.58-1.58c.88 0 1.58.71 1.58 1.58s-.71 1.58-1.58 1.58zm3.11 3.11c-.88 0-1.58-.71-1.58-1.58s.71-1.58 1.58-1.58c.87 0 1.58.71 1.58 1.58s-.71 1.58-1.58 1.58zm3.11-3.11c-.88 0-1.58-.71-1.58-1.58s.71-1.58 1.58-1.58c.87 0 1.58.71 1.58 1.58s-.7 1.58-1.58 1.58z"></path>
</svg>
