<svg xmlns="http://www.w3.org/2000/svg" xmlns:xlink="http://www.w3.org/1999/xlink" viewBox="0 0 70 70"
     id="header-education-grayscale">
    <circle fill="#EAEAEC" cx="35" cy="35" r="35"></circle>
    <g>
        <path fill="#FFFFFF" d="M18.8,20.5h10.9c0,0,4.3-0.4,4.3,4.7v19.8c0,0-1.1-3.1-5.4-2.8H15.2L18.8,20.5z"></path>
        <path fill="#FFFFFF" d="M51.6,20.5H40.7c0,0-4.3-0.4-4.3,4.7v19.8c0,0,1.1-3.1,5.4-2.8h13.4L51.6,20.5z"></path>
        <path fill="#FFFFFF"
              d="M35,48.4c-2.3,0-4.4-1-5.9-2.7H15.2V44h14.7l0.3,0.3c1.2,1.5,2.9,2.4,4.9,2.4c1.9,0,3.7-0.9,4.9-2.4   l0.3-0.3h15.1v1.7H40.9C39.4,47.5,37.3,48.4,35,48.4z"></path>
    </g>
</svg>
