<svg xmlns="http://www.w3.org/2000/svg" xmlns:xlink="http://www.w3.org/1999/xlink" viewBox="0 0 70 70"
     id="header-devops">
    <defs>
        <linearGradient id="header-devops_New_Gradient_Swatch" data-name="New Gradient Swatch" x1="53.65577"
                        y1="5.82046" x2="15.85225" y2="64.94904" gradientUnits="userSpaceOnUse">
            <stop offset="0" stop-color="#ffd600"></stop>
            <stop offset="0.54312" stop-color="#ff344d"></stop>
            <stop offset="1" stop-color="red"></stop>
        </linearGradient>
    </defs>
    <title>header-devops2</title>
    <circle cx="35" cy="35" r="35" fill="url(#header-devops_New_Gradient_Swatch)"></circle>
    <path d="M47.72529,45.21166a9.71588,9.71588,0,0,1-5.784-1.79634c-1.80582-1.31876-4.22783-3.20909-6.84258-5.26224-2.69355,2.12531-5.24278,4.07972-7.1483,5.3363v.00047a10.21182,10.21182,0,1,1-5.67573-18.70151A9.76821,9.76821,0,0,1,28.034,26.56711c1.85235,1.33491,4.41393,3.3254,7.04766,5.3909.14906-.11868.29812-.23736.44529-.35509,2.41916-1.92973,4.70445-3.75217,6.402-5.00922a9.64346,9.64346,0,0,1,5.79631-1.80536,10.21166,10.21166,0,0,1,0,20.42332ZM39.00947,35.04272c2.1856,1.71231,4.27531,3.33442,5.79915,4.44669a4.8961,4.8961,0,0,0,2.91667.86114,5.35055,5.35055,0,0,0,0-10.7011,4.89743,4.89743,0,0,0-2.90338.85165C43.29617,31.6295,41.2245,33.2763,39.00947,35.04272ZM22.27471,29.64945a5.35055,5.35055,0,1,0,3.00022,9.782h0c1.53524-1.01257,3.65153-2.61759,5.88745-4.36835-2.26061-1.7688-4.40063-3.42082-5.97005-4.55207A4.94869,4.94869,0,0,0,22.27471,29.64945Z"
          fill="#fff"></path>
</svg>
