<svg xmlns="http://www.w3.org/2000/svg" viewBox="0 0 70.73 57.53" id="header-kotlin">
    <title>20170808_menu</title>
    <g id="header-kotlin_Layer_6" data-name="Layer 6">
        <polygon points="-71.11 208.7 1438.38 208.7 1437.38 -32.67 -72.11 -32.67 -71.11 208.7"
                 style="fill: #fff"></polygon>
        <g>
            <polygon points="13.89 0.69 13.89 27.59 27.35 14.15 13.89 0.69" style="fill: #4bb8f6"></polygon>
            <polygon points="12.95 13.64 12.95 0.69 0 13.64 12.95 13.64" style="fill: #ff7616"></polygon>
            <polygon points="27.53 57.53 27.53 44.58 14.58 57.53 27.53 57.53" style="fill: #4bb8f6"></polygon>
            <polygon points="28.08 42.76 70.73 0 56.8 0 43.02 0 14.11 28.79 28.08 42.76"
                     style="fill: #4bb8f6"></polygon>
            <polygon points="28.52 57.53 41.48 57.53 28.52 44.57 28.52 57.53" style="fill: #4bb8f6"></polygon>
            <polygon points="42.64 29.48 28.8 43.48 43.02 57.53 70.73 57.53 42.64 29.48"
                     style="fill: #4bb8f6"></polygon>
            <polygon points="13.89 56.84 27.43 43.48 13.89 29.94 13.89 56.84" style="fill: #4bb8f6"></polygon>
        </g>
    </g>
</svg>
