<svg xmlns="http://www.w3.org/2000/svg" xmlns:xlink="http://www.w3.org/1999/xlink" viewBox="0 0 70 70"
     id="header-devops-grayscale">
    <circle fill="#EAEAEC" cx="35" cy="35" r="35"></circle>
    <g>
        <path fill="#FFFFFF"
              d="M47.7,45.2c-2.2,0-4.2-0.6-5.8-1.8c-1.8-1.3-4.2-3.2-6.8-5.3c-2.7,2.1-5.2,4.1-7.1,5.3v0   c-1.7,1.1-3.7,1.7-5.7,1.7c-5.6,0-10.2-4.6-10.2-10.2s4.6-10.2,10.2-10.2c2.2,0,4.1,0.6,5.8,1.8c1.9,1.3,4.4,3.3,7,5.4   c0.1-0.1,0.3-0.2,0.4-0.4c2.4-1.9,4.7-3.8,6.4-5c1.6-1.2,3.6-1.8,5.8-1.8c5.6,0,10.2,4.6,10.2,10.2S53.4,45.2,47.7,45.2z M39,35   c2.2,1.7,4.3,3.3,5.8,4.4c0.8,0.6,1.8,0.9,2.9,0.9c2.9,0,5.4-2.4,5.4-5.4s-2.4-5.4-5.4-5.4c-1.1,0-2.2,0.3-2.9,0.9   C43.3,31.6,41.2,33.3,39,35z M22.3,29.6c-2.9,0-5.4,2.4-5.4,5.4s2.4,5.4,5.4,5.4c1.1,0,2.1-0.3,3-0.9l0,0c1.5-1,3.7-2.6,5.9-4.4   c-2.3-1.8-4.4-3.4-6-4.6C24.4,29.9,23.4,29.6,22.3,29.6z"></path>
    </g>
</svg>

