<svg xmlns="http://www.w3.org/2000/svg" xmlns:xlink="http://www.w3.org/1999/xlink" viewBox="0 0 23.43 19.74" id="cart">
    <g>
        <path d="M14.75,13.99H3.3L0,3.33h16.28L17.25,0h5.43c0.41,0,0.75,0.34,0.75,0.75S23.1,1.5,22.68,1.5h-4.31   L14.75,13.99z M4.4,12.49h9.22l2.23-7.67H2.03L4.4,12.49z"></path>
        <path d="M5.06,19.74c-0.85,0-1.54-0.69-1.54-1.54s0.69-1.54,1.54-1.54S6.6,17.35,6.6,18.2S5.91,19.74,5.06,19.74z    M5.06,18.16L5.1,18.2C5.1,18.18,5.08,18.16,5.06,18.16z"></path>
        <path d="M13.35,19.74c-0.85,0-1.54-0.69-1.54-1.54s0.69-1.54,1.54-1.54s1.54,0.69,1.54,1.54S14.2,19.74,13.35,19.74   z M13.35,18.16l0.04,0.04C13.39,18.18,13.37,18.16,13.35,18.16z"></path>
    </g>
</svg>
