<svg xmlns="http://www.w3.org/2000/svg" xmlns:xlink="http://www.w3.org/1999/xlink" viewBox="0 0 3.606 4.26"
     id="account">
    <path fill="currentColor"
          d="M1.786,2.457c-0.53,0-0.972-0.442-0.972-0.972V0.972C0.813,0.442,1.255,0,1.786,0s0.972,0.442,0.972,0.972v0.513  C2.758,2.033,2.316,2.457,1.786,2.457z M1.786,0.424c-0.318,0-0.566,0.248-0.566,0.566v0.513c0,0.318,0.248,0.565,0.566,0.565  c0.318,0,0.565-0.248,0.565-0.565V0.99C2.351,0.672,2.104,0.424,1.786,0.424z M3.588,3.854c0-0.354-0.194-0.671-0.477-0.777  c-0.849-0.354-1.786-0.354-2.634,0C0.195,3.2,0,3.5,0,3.854V4.26h0.407V3.854c0-0.194,0.088-0.354,0.23-0.406  c0.742-0.301,1.573-0.301,2.333,0C3.111,3.5,3.2,3.677,3.2,3.854V4.26h0.407V3.854H3.588z"></path>
</svg>
